<?xml version="1.0" encoding="UTF-8"?><svg id="a" xmlns="http://www.w3.org/2000/svg" width="456" height="119" viewBox="0 0 456 119"><rect x="172.82" y="50.53" width="3.33" height=".92" style="fill:#fff;"/><path d="M160.57,48.33c-.07-.36-.17-.58-.25-.72-.18-.33-.57-.82-1.47-.82-.29,0-.86,.04-1.38,.59-.42,.46-.81,1.24-.81,2.63,0,.93,.19,2.01,.92,2.69,.51,.46,1.06,.48,1.31,.48,.18,0,.62-.01,1.04-.33,.66-.52,.72-1.48,.74-1.67h1.17c-.01,.28-.05,1.23-.59,2-.31,.45-.98,1.12-2.31,1.12-.27,0-.93-.02-1.6-.35-.92-.46-2.03-1.57-2.03-3.92,0-2.05,.79-3.13,1.5-3.68,.82-.62,1.7-.67,2.07-.67,1.08,0,2.09,.47,2.56,1.5,.18,.38,.24,.75,.28,1.17h-1.14Z" style="fill:#fff;"/><path d="M165.61,46.24c.8-.54,1.59-.58,1.93-.58,1.25,0,2.01,.59,2.36,.93,.57,.54,1.23,1.57,1.23,3.38,0,.5-.02,2.66-1.72,3.77-.57,.36-1.18,.54-1.86,.54-.29,0-1-.04-1.71-.45-1.85-1.06-1.88-3.37-1.88-3.86,.01-1.4,.44-2.9,1.66-3.73m.11,5.75c.18,.34,.35,.53,.47,.65,.52,.51,1.08,.54,1.35,.54,.77,0,1.37-.39,1.74-1.05,.22-.38,.48-1.1,.48-2.16,0-.24,.02-1.83-.88-2.69-.21-.2-.62-.52-1.34-.52-.18,0-.59,.01-.99,.26-1.28,.75-1.24,2.74-1.24,2.95,0,.24,0,1.21,.4,2.01" style="fill:#fff;"/><polygon points="182.99 49.27 182.99 50.37 179.64 50.37 179.64 53.03 183.39 53.03 183.39 54.13 178.36 54.13 178.36 45.82 183.28 45.82 183.28 46.91 179.64 46.91 179.64 49.27 182.99 49.27" style="fill:#fff;"/><polygon points="187.42 45.82 191.09 52.17 191.09 45.82 192.31 45.82 192.31 54.13 190.98 54.13 187.27 47.78 187.27 54.13 186.04 54.13 186.04 45.82 187.42 45.82" style="fill:#fff;"/><path d="M201.71,49.92v3.44c-.09,.07-.35,.25-.65,.4-.34,.16-1.19,.53-2.27,.53-1.48,0-2.31-.67-2.71-1.13-.45-.52-1-1.53-1-3.19,0-.47,.01-2.71,1.72-3.78,.31-.19,.95-.52,1.87-.52,1.05,0,2.09,.42,2.59,1.4,.15,.28,.27,.6,.33,1.25h-1.14c-.06-.29-.2-1.15-1.11-1.44-.27-.09-.55-.11-.65-.11-.34,0-1.13,.08-1.69,.87-.45,.65-.59,1.59-.59,2.34,0,1.51,.54,3.18,2.38,3.18,.6,0,1.3-.21,1.81-.54v-1.7h-1.68v-1.01h2.78Z" style="fill:#fff;"/><rect x="204.65" y="45.82" width="1.3" height="8.32" style="fill:#fff;"/><polygon points="210.58 45.82 214.26 52.17 214.26 45.82 215.47 45.82 215.47 54.13 214.14 54.13 210.43 47.78 210.43 54.13 209.2 54.13 209.2 45.82 210.58 45.82" style="fill:#fff;"/><polygon points="223.35 49.27 223.35 50.37 220.01 50.37 220.01 53.03 223.75 53.03 223.75 54.13 218.72 54.13 218.72 45.82 223.65 45.82 223.65 46.91 220.01 46.91 220.01 49.27 223.35 49.27" style="fill:#fff;"/><polygon points="231.03 49.27 231.03 50.37 227.69 50.37 227.69 53.03 231.43 53.03 231.43 54.13 226.4 54.13 226.4 45.82 231.33 45.82 231.33 46.91 227.69 46.91 227.69 49.27 231.03 49.27" style="fill:#fff;"/><path d="M235.86,45.82c.46,0,1.07,0,1.53,.06,.34,.06,1.33,.2,1.87,1.13,.13,.21,.33,.65,.32,1.27,0,.2-.02,.81-.37,1.34-.18,.27-.41,.49-.67,.67-.24,.15-.45,.22-.54,.27l2.05,3.57h-1.52l-1.9-3.36h-1.28v3.36h-1.28v-8.32h1.79Zm.74,3.85c.34-.02,1.66-.05,1.65-1.41,0-.67-.38-.99-.6-1.11-.47-.27-1.28-.22-1.78-.24h-.52v2.76h1.25Z" style="fill:#fff;"/><polygon points="247.07 49.27 247.07 50.37 243.72 50.37 243.72 53.03 247.47 53.03 247.47 54.13 242.44 54.13 242.44 45.82 247.36 45.82 247.36 46.91 243.72 46.91 243.72 49.27 247.07 49.27" style="fill:#fff;"/><path d="M252.49,45.82c1.35,.05,1.99,.32,2.51,.72,.6,.46,1.52,1.53,1.51,3.44,0,1.17-.38,2.43-1.26,3.24-1.01,.94-2.33,.92-3.59,.92h-1.52v-8.32h2.36Zm-.39,7.21c.65,0,.94-.01,1.25-.09,.58-.13,1.39-.52,1.71-1.86,.12-.51,.12-.92,.12-1.11,0-1.2-.41-2.52-1.7-2.91-.44-.13-.82-.14-1.7-.14h-.37v6.11h.68Z" style="fill:#fff;"/><polygon points="264.23 45.82 265.83 52.59 267.46 45.82 268.57 45.82 270.2 52.59 271.82 45.82 273.01 45.82 270.94 54.16 269.5 54.16 268 48.23 266.52 54.16 265.08 54.16 263.02 45.82 264.23 45.82" style="fill:#fff;"/><rect x="275.38" y="45.82" width="1.3" height="8.32" style="fill:#fff;"/><polygon points="284.75 45.82 284.75 46.91 282.56 46.91 282.56 54.13 281.28 54.13 281.28 46.91 279.1 46.91 279.1 45.82 284.75 45.82" style="fill:#fff;"/><polygon points="292.05 49.26 292.05 45.82 293.33 45.82 293.33 54.13 292.05 54.13 292.05 50.33 288.47 50.33 288.47 54.13 287.17 54.13 287.17 45.82 288.47 45.82 288.47 49.26 292.05 49.26" style="fill:#fff;"/><g><path d="M318.1,66.8c9.25,0,16.75-7.5,16.75-16.75s-7.5-16.75-16.75-16.75-16.75,7.5-16.75,16.75,7.5,16.75,16.75,16.75Z" style="fill:#e60012;"/><g><g><path d="M331.41,51s-.44,.31-.75,.31c-.24,0-.36-.2-.36-.41,0-.48,.76-2.87,.76-2.87l-1.86,.03-.1,.32s-.27-.55-1.24-.55c-1.89,0-2.92,1.63-2.97,2.59,0,.21-.01,.24-.01,.24-.04,.05-.71,.81-1.53,.81-.66,0-.76-.55-.76-.9,0-.38,.32-1.89,1.21-1.89,.49,0,.78,.42,.78,.42l.26-.86s-.42-.32-1.26-.33c-1.83,0-3.07,1.37-3.12,2.6,0,.18-.02,.24-.01,.26-.06,.07-.51,.59-1.09,.59-.4,0-.4-.31-.4-.45,0-.19,.79-2.87,.79-2.87l-2.06,.03-.74,2.61s-1.13,.82-2.71,.93c-.81,.06-1.1-.44-1.1-.73v-.12s.33,.02,.58,.02c.19,0,2.6-.17,2.6-1.64,0-.84-.84-1.16-1.91-1.16-1.97,0-3.35,1.22-3.35,2.67,0,1.32,1.13,1.89,2.59,1.89,1.65,0,3.27-1.01,3.27-1.01,0,0,.09,1.01,1.39,1.01s2.4-1.01,2.4-1.01c0,0,.59,.97,1.93,.97s2.42-1.11,2.42-1.11c0,0,.37,1.04,1.72,1.04,1.06,0,1.63-.69,1.63-.69,0,0,.3,.69,1.23,.69,1.13,0,1.97-.79,1.97-.79l-.2-.65Zm-16.91-2.42c.28,.02,.46,.21,.45,.42-.05,1.31-1.66,1.11-1.66,1.11,0,0,.26-1.58,1.21-1.53Zm12.98,2.89c-.51,0-.51-.56-.51-.72,0-.43,.33-2.12,1.26-2.12,.39,0,.6,.33,.6,.57,0,.05-.23,2.27-1.34,2.27Z" style="fill:#fff;"/><path d="M331.79,52.77s-4.34,1.51-12.61,1.41c-5.71-.07-10.06-1.75-10.06-1.75,0,0,.14-.27,.23-.46,.57-1.17,1.25-3.53,1.25-3.53,0,0,3.92-1.09,3.92-4.21,0-.99-.92-1.62-1.82-1.66-3.16-.12-4.04,4.38-4.23,5.15-.01,.06-.02,.07-.02,.07-.98-.13-1.53-.33-1.53-.33l-.22,.61c.66,.31,1.62,.41,1.62,.41-.19,1.21-1.13,3.49-1.13,3.49,0,0-.87-.29-1.94-.29-1.39,0-1.87,.66-1.91,1.08-.09,1.08,1.26,1.58,2.2,1.58,1.84,0,2.8-.99,2.8-.99,0,0,5.18,1.96,10.59,1.96,7.08,0,13.04-1.88,13.04-1.88l-.2-.65Zm-18.94-9.31c.61,0,.81,.49,.76,.93-.3,2.6-2.88,3.2-2.88,3.2,0,0,.64-4.13,2.12-4.13Zm-7.7,10.04c-.52,.02-.86-.33-.86-.52,0-.43,.53-.5,.86-.47,.81,.04,1.5,.32,1.5,.32,0,0-.82,.66-1.5,.68Z" style="fill:#fff;"/></g><path d="M319.13,45.6c-.66,0-1.14,.27-1.14,.88s.56,.79,1.14,.79,1.12-.27,1.12-.91-.64-.77-1.12-.77Z" style="fill:#fff;"/></g></g><g><path d="M251.27,.43c4.91,0,8.42,3.19,8.42,7.75s-3.51,7.72-8.42,7.72h-4.04v8.67h-4.49V.43h8.53Zm-.63,11.82c2.6,0,4.42-1.65,4.42-4.07s-1.82-4.11-4.42-4.11h-3.4V12.26h3.4Z" style="fill:#fff;"/><path d="M267.9,7.03v1.75c1.26-1.4,2.81-2.18,4.32-2.18,.49,0,.98,.04,1.47,.18v4c-.49-.14-1.05-.21-1.58-.21-1.47,0-3.05,.81-4.21,2.28v11.72h-4.49V7.03h4.49Z" style="fill:#fff;"/><path d="M284.36,6.61c5.3,0,9.02,3.79,9.02,9.19s-3.72,9.19-9.02,9.19-9.05-3.82-9.05-9.19,3.75-9.19,9.05-9.19Zm0,14.63c2.6,0,4.42-2.21,4.42-5.44s-1.82-5.44-4.42-5.44-4.46,2.21-4.46,5.44,1.82,5.44,4.46,5.44Z" style="fill:#fff;"/></g><g><path d="M86.13,.38c-3.5,0-7,.44-9.22,2.62-2.21,2.18-3.07,5.45-3.07,9.46s.76,7.23,2.98,9.41c2.22,2.17,5.81,2.7,9.3,2.7s6.98-.45,9.2-2.62c2.21-2.18,3.09-5.47,3.09-9.48s-.78-7.21-2.99-9.39c-2.21-2.18-5.8-2.7-9.3-2.7Zm5.31,17.87c-1.23,1.41-3.47,1.66-5.31,1.66s-4.07-.25-5.3-1.65c-1.23-1.41-1.32-3.35-1.32-5.79s.08-4.33,1.31-5.74c1.23-1.41,3.21-1.65,5.31-1.65s4.08,.24,5.31,1.65c1.23,1.41,1.31,3.3,1.31,5.74s-.08,4.38-1.31,5.79ZM37.63,.81h-4.95c-.21,0-.38,.17-.38,.38V23.79c0,.2,.17,.37,.38,.37h4.95c.21,0,.38-.17,.38-.37V1.19c0-.21-.17-.38-.38-.38ZM16.82,12.29L25.62,1.4c.19-.24,.02-.59-.28-.59h-6.34c-.15,0-.29,.07-.38,.19l-5.81,7.71L7.12,1.01c-.09-.12-.23-.2-.39-.2H.37C.06,.81-.1,1.16,.09,1.4L8.99,12.5,.08,23.58c-.18,.24-.01,.58,.29,.58H6.72c.15,0,.3-.07,.39-.2l5.94-7.68,5.63,7.68c.09,.12,.24,.2,.39,.2h6.28c.3,0,.47-.35,.28-.58l-8.82-11.28ZM137.44,2.53c-2.02-1.88-5.26-2.1-7.88-2.1-3.39,0-5.54,.72-6.85,1.4h-.91c-1.28-.71-3.53-1.4-7.08-1.4-2.62,0-5.84,.19-7.82,1.86-1.64,1.38-2.02,3.21-2.02,6.97v14.52c0,.2,.17,.37,.38,.37h4.95c.21,0,.39-.17,.39-.37v-.05s0-9.18,0-11.9c0-2.16-.08-4.4,.38-5.24,.36-.65,.93-1.38,3.62-1.38,3.21,0,3.96,.23,4.47,1.65,.12,.34,.18,.81,.21,1.4v15.53c0,.2,.17,.37,.38,.37h4.95c.21,0,.38-.17,.38-.37V8.24c.03-.58,.09-1.06,.21-1.4,.51-1.42,1.26-1.65,4.47-1.65,2.69,0,3.26,.73,3.62,1.38,.47,.84,.38,3.08,.38,5.24,0,2.72,0,11.9,0,11.9v.05c0,.2,.17,.37,.39,.37h4.95c.21,0,.38-.17,.38-.37V10.14c0-3.9-.13-5.9-1.96-7.61Zm-71.09,1.38C64.06,.76,59.93-.2,55.64,.03c-4.35,.23-7.38,1.16-8.16,1.45-.48,.18-.42,.6-.43,.85-.02,.83-.08,2.99-.08,3.86,0,.39,.48,.57,.87,.43,1.59-.56,4.52-1.46,6.87-1.65,2.54-.21,5.99,0,6.95,1.44,.45,.69,.48,1.74,.53,2.81-1.59-.14-3.93-.34-6.27-.22-1.82,.1-5.3,.25-7.35,1.34-1.67,.89-2.65,1.7-3.17,3.19-.42,1.21-.53,2.66-.4,3.85,.3,2.7,1.24,4.05,2.51,4.98,2,1.48,4.52,2.26,9.74,2.15,6.95-.15,8.77-2.4,9.69-3.99,1.57-2.71,1.3-7,1.25-9.63-.02-1.09-.18-4.68-1.85-6.98Zm-4.53,14.25c-.66,1.38-2.99,1.59-4.38,1.66-2.56,.12-4.45,.01-5.66-.59-.81-.4-1.4-1.32-1.45-2.36-.05-.88-.03-1.34,.37-1.86,.9-1.17,3.25-1.42,5.67-1.52,1.63-.06,4.12,.12,5.96,.34-.01,1.77-.13,3.55-.5,4.33ZM152.6,.81h-4.95c-.21,0-.38,.17-.38,.38V23.79c0,.2,.17,.37,.38,.37h4.95c.21,0,.38-.17,.38-.37V1.19c0-.21-.17-.38-.38-.38Z" style="fill:#fff;"/><g><path d="M169.63,8.64V4.5l7.44-4.07h3.05V24.58h-4.6V5.38l-5.9,3.27Z" style="fill:#fff;"/><path d="M193.55,10.54c2.63,0,4.46-1.47,4.46-3.55,0-1.9-1.54-3.23-3.76-3.23-1.82,0-3.69,.63-5.55,1.76V1.41C190.67,.5,192.74,0,194.74,0c4.63,0,7.83,2.67,7.83,6.6,0,2.49-1.47,4.67-3.79,5.51,2.67,.95,4.32,3.23,4.32,6.04,0,4.04-3.47,6.85-8.53,6.85-2.11,0-4.28-.53-6.42-1.54v-4.18c2,1.3,3.93,1.97,5.83,1.97,2.63,0,4.49-1.44,4.49-3.51s-1.9-3.65-4.67-3.65h-1.37v-3.55h1.12Z" style="fill:#fff;"/><path d="M206.65,4.18V.43h19.24v3.76h-7.3V24.58h-4.6V4.18h-7.34Z" style="fill:#fff;"/></g></g><g><path d="M4.14,84.11l8.1,11.25,8.06-11.25h4.21v25.21h-4.51v-17.55l-6.34,8.83h-2.9l-6.27-8.83v17.55H0v-25.21H4.14Z" style="fill:#fff;"/><path d="M34.93,109.76c-3.41,0-5.83-2.24-5.83-5.46,0-3.81,3.59-6.45,8.83-6.45,.73,0,1.47,.04,2.27,.07v-.84c0-1.72-1.39-2.9-3.45-2.9-1.91,0-3.99,.59-6.08,1.76v-3.88c2.24-1.03,4.47-1.5,6.63-1.5,4.47,0,7.37,2.79,7.37,6.74v12.02h-4.47v-1.47c-1.61,1.25-3.41,1.91-5.28,1.91Zm1.54-3.63c1.28,0,2.6-.66,3.74-1.8v-3.59c-.66-.07-1.32-.11-2.05-.11-2.64,0-4.43,1.25-4.43,3.01,0,1.47,1.14,2.49,2.75,2.49Z" style="fill:#fff;"/><path d="M54.28,106.06c1.65,0,2.79-.84,2.79-2.02,0-3.08-8.5-1.43-8.5-7.84,0-3.34,2.9-5.64,7-5.64,1.72,0,3.52,.37,5.2,1.06v4.07c-1.58-.95-3.26-1.43-4.87-1.43s-2.64,.77-2.64,1.87c0,2.93,8.5,1.28,8.5,7.84,0,3.41-2.93,5.79-7.18,5.79-1.87,0-3.74-.44-5.61-1.25v-4.14c1.76,1.1,3.55,1.69,5.31,1.69Z" style="fill:#fff;"/><path d="M76.85,91v3.77h-5.28v8.47c0,1.5,1.06,2.6,2.68,2.6,.77,0,1.65-.26,2.6-.73v3.88c-1.32,.51-2.6,.77-3.85,.77-3.59,0-6.12-2.46-6.12-5.9v-9.09h-3.15v-3.77h3.15v-5.17h4.69v5.17h5.28Z" style="fill:#fff;"/><path d="M88.36,90.56c4.8,0,8.06,3.77,8.06,9.16,0,.51,0,1.1-.07,1.72h-12.42c.29,2.79,2.49,4.69,5.57,4.69,1.69,0,3.55-.62,5.46-1.72v3.92c-2.09,.95-4.18,1.43-6.23,1.43-5.53,0-9.42-4.03-9.42-9.75s3.81-9.46,9.05-9.46Zm-.18,3.63c-2.27,0-4.03,1.69-4.25,4.21h7.99c-.15-2.49-1.65-4.21-3.74-4.21Z" style="fill:#fff;"/><path d="M104.85,91v1.83c1.32-1.47,2.93-2.27,4.51-2.27,.51,0,1.03,.04,1.54,.18v4.18c-.51-.15-1.1-.22-1.65-.22-1.54,0-3.19,.84-4.4,2.38v12.24h-4.69v-18.32h4.69Z" style="fill:#fff;"/><path d="M119.11,91v1.25c1.47-1.1,3.08-1.69,4.65-1.69,4.91,0,8.28,3.96,8.28,9.6s-3.37,9.6-8.28,9.6c-1.58,0-3.19-.59-4.65-1.72v9.31h-4.69v-26.35h4.69Zm3.66,3.59c-1.28,0-2.57,.55-3.66,1.65v7.84c1.1,1.1,2.38,1.65,3.66,1.65,2.64,0,4.47-2.27,4.47-5.57s-1.83-5.57-4.47-5.57Z" style="fill:#fff;"/><path d="M138.27,83.27c1.54,0,2.68,1.1,2.68,2.68s-1.14,2.64-2.68,2.64-2.68-1.1-2.68-2.64,1.1-2.68,2.68-2.68Zm2.35,7.73v18.32h-4.69v-18.32h4.69Z" style="fill:#fff;"/><path d="M153.55,90.56c4.8,0,8.06,3.77,8.06,9.16,0,.51,0,1.1-.07,1.72h-12.42c.29,2.79,2.49,4.69,5.57,4.69,1.69,0,3.55-.62,5.46-1.72v3.92c-2.09,.95-4.18,1.43-6.23,1.43-5.53,0-9.42-4.03-9.42-9.75s3.81-9.46,9.05-9.46Zm-.18,3.63c-2.27,0-4.03,1.69-4.25,4.21h7.99c-.15-2.49-1.65-4.21-3.74-4.21Z" style="fill:#fff;"/><path d="M173.53,90.56c1.83,0,3.7,.44,5.53,1.28v4.21c-1.58-1.03-3.19-1.58-4.69-1.58-3.19,0-5.46,2.31-5.46,5.68s2.27,5.68,5.46,5.68c1.5,0,3.12-.55,4.69-1.58v4.21c-1.83,.84-3.7,1.28-5.53,1.28-5.53,0-9.42-3.99-9.42-9.6s3.88-9.6,9.42-9.6Z" style="fill:#fff;"/><path d="M190.64,90.56c4.8,0,8.06,3.77,8.06,9.16,0,.51,0,1.1-.07,1.72h-12.42c.29,2.79,2.49,4.69,5.57,4.69,1.69,0,3.55-.62,5.46-1.72v3.92c-2.09,.95-4.18,1.43-6.23,1.43-5.53,0-9.42-4.03-9.42-9.75s3.81-9.46,9.05-9.46Zm-.18,3.63c-2.27,0-4.03,1.69-4.25,4.21h7.99c-.15-2.49-1.65-4.21-3.74-4.21Z" style="fill:#fff;"/><path d="M213.95,83.27c1.54,0,2.68,1.1,2.68,2.68s-1.14,2.64-2.68,2.64-2.68-1.1-2.68-2.64,1.1-2.68,2.68-2.68Zm2.35,7.73v18.32h-4.69v-18.32h4.69Z" style="fill:#fff;"/><path d="M226.12,91v1.58c1.65-1.32,3.48-2.02,5.35-2.02,3.81,0,6.52,2.71,6.52,6.6v12.17h-4.73v-11.32c0-1.94-1.32-3.33-3.23-3.33-1.36,0-2.71,.66-3.92,1.94v12.72h-4.69v-18.32h4.69Z" style="fill:#fff;"/><path d="M256.72,106.06c1.65,0,2.79-.84,2.79-2.02,0-3.08-8.5-1.43-8.5-7.84,0-3.34,2.9-5.64,7-5.64,1.72,0,3.52,.37,5.2,1.06v4.07c-1.58-.95-3.26-1.43-4.87-1.43s-2.64,.77-2.64,1.87c0,2.93,8.5,1.28,8.5,7.84,0,3.41-2.93,5.79-7.18,5.79-1.87,0-3.74-.44-5.61-1.25v-4.14c1.76,1.1,3.55,1.69,5.31,1.69Z" style="fill:#fff;"/><path d="M270.42,83.27c1.54,0,2.68,1.1,2.68,2.68s-1.14,2.64-2.68,2.64-2.68-1.1-2.68-2.64,1.1-2.68,2.68-2.68Zm2.35,7.73v18.32h-4.69v-18.32h4.69Z" style="fill:#fff;"/><path d="M284.83,117.79c-2.13,0-4.29-.48-6.45-1.39v-4.1c2.05,1.14,4.14,1.8,6.01,1.8,3.08,0,5.2-1.98,5.2-4.84v-1.21c-1.43,1.14-3.04,1.72-4.65,1.72-4.87,0-8.28-3.96-8.28-9.6s3.41-9.6,8.28-9.6c1.61,0,3.23,.59,4.65,1.69v-1.25h4.73v18.1c0,5.06-3.88,8.69-9.49,8.69Zm1.14-12.06c1.28,0,2.57-.55,3.63-1.65v-7.84c-1.06-1.1-2.35-1.65-3.63-1.65-2.68,0-4.51,2.27-4.51,5.57s1.83,5.57,4.51,5.57Z" style="fill:#fff;"/><path d="M304.1,82.97v9.6c1.65-1.32,3.48-2.02,5.35-2.02,3.81,0,6.52,2.71,6.52,6.6v12.17h-4.73v-11.32c0-1.94-1.32-3.33-3.23-3.33-1.36,0-2.71,.66-3.92,1.94v12.72h-4.69v-26.35h4.69Z" style="fill:#fff;"/><path d="M332.14,91v3.77h-5.28v8.47c0,1.5,1.06,2.6,2.68,2.6,.77,0,1.65-.26,2.6-.73v3.88c-1.32,.51-2.6,.77-3.85,.77-3.59,0-6.12-2.46-6.12-5.9v-9.09h-3.15v-3.77h3.15v-5.17h4.69v5.17h5.28Z" style="fill:#fff;"/></g></svg>