<?xml version="1.0" encoding="UTF-8"?><svg id="a" xmlns="http://www.w3.org/2000/svg" width="456" height="67" viewBox="0 0 456 67"><g><rect x="173.65" y="50.67" width="3.34" height=".93" style="fill:#fff;"/><path d="M161.36,48.47c-.07-.36-.17-.58-.25-.72-.17-.33-.57-.83-1.47-.83-.29,0-.86,.03-1.38,.6-.42,.45-.82,1.24-.82,2.64,0,.93,.19,2.02,.92,2.7,.51,.45,1.07,.48,1.31,.48,.17,0,.63,0,1.04-.33,.66-.52,.72-1.49,.74-1.68h1.17c0,.28-.05,1.22-.6,2.01-.31,.45-.98,1.12-2.32,1.12-.27,0-.93-.02-1.61-.35-.93-.45-2.03-1.57-2.03-3.94,0-2.06,.79-3.14,1.5-3.69,.83-.63,1.7-.68,2.08-.68,1.08,0,2.09,.47,2.56,1.5,.17,.37,.23,.76,.28,1.17h-1.12Z" style="fill:#fff;"/><path d="M166.42,46.38c.8-.55,1.6-.58,1.94-.58,1.25,0,2.02,.6,2.36,.93,.57,.55,1.22,1.57,1.22,3.39,0,.5-.02,2.67-1.73,3.78-.57,.36-1.18,.55-1.87,.55-.29,0-1-.03-1.71-.45-1.85-1.06-1.89-3.37-1.89-3.88,0-1.41,.43-2.91,1.67-3.75m.11,5.77c.17,.34,.35,.54,.47,.65,.52,.51,1.08,.55,1.36,.55,.77,0,1.36-.39,1.75-1.05,.22-.37,.48-1.1,.48-2.16,0-.23,.02-1.84-.89-2.7-.21-.2-.63-.52-1.35-.52-.17,0-.6,0-.99,.26-1.28,.76-1.24,2.75-1.24,2.95,0,.23,0,1.22,.4,2.02" style="fill:#fff;"/><polygon points="183.85 49.41 183.85 50.52 180.49 50.52 180.49 53.18 184.25 53.18 184.25 54.29 179.21 54.29 179.21 45.95 184.14 45.95 184.14 47.04 180.49 47.04 180.49 49.41 183.85 49.41" style="fill:#fff;"/><polygon points="188.29 45.95 191.98 52.32 191.98 45.95 193.19 45.95 193.19 54.29 191.85 54.29 188.14 47.92 188.14 54.29 186.92 54.29 186.92 45.95 188.29 45.95" style="fill:#fff;"/><path d="M202.62,50.06v3.45c-.09,.07-.35,.25-.65,.4-.34,.17-1.19,.54-2.27,.54-1.48,0-2.32-.68-2.72-1.13-.45-.52-1-1.54-1-3.2,0-.47,0-2.72,1.73-3.8,.31-.19,.96-.52,1.88-.52,1.05,0,2.09,.42,2.61,1.41,.15,.28,.27,.6,.33,1.25h-1.14c-.06-.29-.2-1.16-1.11-1.44-.27-.09-.56-.11-.65-.11-.34,0-1.13,.08-1.7,.88-.45,.65-.6,1.6-.6,2.35,0,1.51,.55,3.19,2.38,3.19,.6,0,1.3-.22,1.82-.55v-1.7h-1.7v-1.02h2.8Z" style="fill:#fff;"/><rect x="205.58" y="45.95" width="1.3" height="8.34" style="fill:#fff;"/><polygon points="211.52 45.95 215.2 52.32 215.2 45.95 216.43 45.95 216.43 54.29 215.09 54.29 211.37 47.92 211.37 54.29 210.13 54.29 210.13 45.95 211.52 45.95" style="fill:#fff;"/><polygon points="224.33 49.41 224.33 50.52 220.97 50.52 220.97 53.18 224.73 53.18 224.73 54.29 219.69 54.29 219.69 45.95 224.63 45.95 224.63 47.04 220.97 47.04 220.97 49.41 224.33 49.41" style="fill:#fff;"/><polygon points="232.03 49.41 232.03 50.52 228.68 50.52 228.68 53.18 232.43 53.18 232.43 54.29 227.39 54.29 227.39 45.95 232.33 45.95 232.33 47.04 228.68 47.04 228.68 49.41 232.03 49.41" style="fill:#fff;"/><path d="M236.88,45.95c.45,0,1.08,0,1.54,.06,.34,.06,1.33,.2,1.88,1.13,.13,.21,.33,.65,.31,1.27,0,.2-.02,.82-.36,1.35-.17,.27-.41,.49-.68,.68-.23,.15-.45,.22-.55,.27l2.06,3.58h-1.53l-1.9-3.37h-1.28v3.37h-1.28v-8.34h1.79Zm.74,3.85c.34-.02,1.67-.05,1.65-1.41,0-.68-.37-.99-.6-1.11-.47-.27-1.28-.22-1.79-.23h-.52v2.77h1.25v-.02Z" style="fill:#fff;"/><polygon points="248.12 49.41 248.12 50.52 244.76 50.52 244.76 53.18 248.51 53.18 248.51 54.29 243.47 54.29 243.47 45.95 248.41 45.95 248.41 47.04 244.76 47.04 244.76 49.41 248.12 49.41" style="fill:#fff;"/><path d="M253.54,45.95c1.36,.05,1.99,.31,2.51,.72,.6,.45,1.53,1.54,1.51,3.45,0,1.17-.37,2.43-1.27,3.25-1.02,.94-2.33,.92-3.61,.92h-1.53v-8.34h2.38Zm-.39,7.23c.65,0,.94,0,1.25-.09,.58-.13,1.39-.52,1.71-1.87,.12-.51,.12-.92,.12-1.11,0-1.2-.41-2.52-1.7-2.92-.43-.13-.83-.14-1.7-.14h-.36v6.13h.69Z" style="fill:#fff;"/><polygon points="265.33 45.95 266.94 52.74 268.56 45.95 269.67 45.95 271.32 52.74 272.93 45.95 274.12 45.95 272.05 54.32 270.61 54.32 269.11 48.37 267.62 54.32 266.18 54.32 264.11 45.95 265.33 45.95" style="fill:#fff;"/><rect x="276.51" y="45.95" width="1.3" height="8.34" style="fill:#fff;"/><polygon points="285.91 45.95 285.91 47.04 283.71 47.04 283.71 54.29 282.43 54.29 282.43 47.04 280.24 47.04 280.24 45.95 285.91 45.95" style="fill:#fff;"/><polygon points="293.22 49.4 293.22 45.95 294.51 45.95 294.51 54.29 293.22 54.29 293.22 50.47 289.63 50.47 289.63 54.29 288.33 54.29 288.33 45.95 289.63 45.95 289.63 49.4 293.22 49.4" style="fill:#fff;"/><g><path d="M319.35,67c9.27,0,16.8-7.52,16.8-16.8s-7.52-16.81-16.8-16.81-16.8,7.52-16.8,16.81,7.52,16.8,16.8,16.8h0Z" style="fill:#e60012;"/><g><g><path d="M332.7,51.15s-.43,.31-.75,.31c-.23,0-.36-.2-.36-.41,0-.48,.76-2.88,.76-2.88l-1.86,.02-.1,.32s-.26-.55-1.25-.55c-1.89,0-2.94,1.64-2.98,2.6,0,.21,0,.24,0,.24-.04,.05-.72,.81-1.54,.81-.66,0-.77-.55-.77-.9,0-.38,.31-1.89,1.21-1.89,.49,0,.79,.42,.79,.42l.26-.87s-.41-.32-1.27-.32c-1.84,0-3.08,1.37-3.13,2.61,0,.18-.02,.24-.02,.26-.06,.07-.5,.6-1.1,.6-.4,0-.4-.31-.4-.45,0-.18,.79-2.89,.79-2.89l-2.07,.03-.74,2.62s-1.13,.83-2.72,.93c-.82,.06-1.1-.44-1.1-.74v-.12s.33,.02,.59,.02c.19,0,2.61-.17,2.61-1.65,0-.84-.84-1.17-1.92-1.17-1.98,0-3.36,1.22-3.36,2.68,0,1.32,1.13,1.89,2.6,1.89,1.66,0,3.28-1.02,3.28-1.02,0,0,.09,1.02,1.4,1.02s2.41-1.02,2.41-1.02c0,0,.6,.98,1.94,.98s2.42-1.11,2.42-1.11c0,0,.36,1.04,1.73,1.04,1.06,0,1.64-.7,1.64-.7,0,0,.3,.7,1.22,.7,1.12,0,1.98-.79,1.98-.79l-.2-.65h.02Zm-16.96-2.44c.27,.02,.46,.22,.45,.41-.05,1.32-1.67,1.11-1.67,1.11,0,0,.26-1.59,1.21-1.53h0Zm13.02,2.9c-.5,0-.5-.56-.5-.73,0-.42,.33-2.13,1.26-2.13,.39,0,.6,.32,.6,.58,0,.05-.23,2.27-1.35,2.27h0Z" style="fill:#fff;"/><path d="M333.08,52.92s-4.34,1.51-12.64,1.41c-5.72-.07-10.09-1.76-10.09-1.76,0,0,.14-.27,.23-.45,.58-1.17,1.25-3.54,1.25-3.54,0,0,3.94-1.1,3.94-4.22,0-.99-.92-1.63-1.83-1.67-3.17-.12-4.05,4.39-4.24,5.16,0,.06-.02,.07-.02,.07-.98-.13-1.53-.33-1.53-.33l-.22,.61c.66,.31,1.62,.41,1.62,.41-.19,1.21-1.12,3.5-1.12,3.5,0,0-.87-.28-1.94-.28-1.4,0-1.88,.67-1.91,1.08-.09,1.08,1.27,1.59,2.21,1.59,1.85,0,2.81-1,2.81-1,0,0,5.19,1.96,10.61,1.96,7.1,0,13.08-1.89,13.08-1.89l-.2-.65h0Zm-18.99-9.32c.61,0,.81,.49,.76,.93-.3,2.61-2.89,3.2-2.89,3.2,0,0,.65-4.14,2.13-4.14h0Zm-7.73,10.09c-.53,.02-.87-.33-.87-.53,0-.43,.53-.5,.87-.47,.81,.04,1.51,.32,1.51,.32,0,0-.83,.66-1.51,.68Z" style="fill:#fff;"/></g><path d="M320.39,45.73c-.66,0-1.14,.26-1.14,.89s.56,.8,1.14,.8,1.12-.27,1.12-.91-.65-.77-1.12-.77h0Z" style="fill:#fff;"/></g></g></g><g><path d="M86.37,.38c-3.51,0-7.02,.44-9.24,2.63-2.22,2.18-3.08,5.47-3.08,9.49s.77,7.25,2.99,9.43c2.22,2.18,5.83,2.71,9.33,2.71s7.01-.45,9.22-2.64,3.09-5.48,3.09-9.51-.78-7.23-3-9.41c-2.22-2.18-5.81-2.7-9.32-2.7h0Zm5.32,17.95c-1.23,1.41-3.47,1.66-5.32,1.66s-4.09-.25-5.32-1.66c-1.23-1.41-1.32-3.35-1.32-5.81s.08-4.34,1.32-5.76c1.23-1.41,3.22-1.66,5.32-1.66s4.09,.24,5.32,1.66c1.23,1.41,1.32,3.31,1.32,5.76s-.08,4.38-1.32,5.81ZM37.74,.82h-4.97c-.21,0-.38,.17-.38,.37V23.86c0,.21,.17,.37,.38,.37h4.97c.21,0,.38-.17,.38-.37V1.19c0-.21-.17-.37-.38-.37ZM16.86,12.33L25.68,1.41c.19-.23,.02-.6-.28-.6h-6.36c-.15,0-.29,.07-.38,.19l-5.83,7.73L7.13,1.01c-.09-.12-.23-.2-.39-.2H.37C.07,.81-.11,1.16,.08,1.41L9.02,12.53,.08,23.65c-.18,.24-.02,.59,.28,.59H6.73c.16,0,.3-.07,.39-.2l5.96-7.71,5.65,7.71c.09,.12,.23,.2,.39,.2h6.3c.3,0,.47-.35,.28-.59l-8.85-11.32h0ZM137.83,2.54c-2.03-1.89-5.27-2.11-7.9-2.11-3.39,0-5.56,.73-6.87,1.4h-.91c-1.28-.71-3.54-1.4-7.1-1.4-2.63,0-5.86,.19-7.84,1.86-1.65,1.37-2.03,3.22-2.03,6.99v14.56c0,.21,.17,.37,.38,.37h4.96c.22,0,.38-.17,.38-.37V11.86c0-2.16-.08-4.42,.38-5.25,.36-.65,.93-1.38,3.63-1.38,3.22,0,3.98,.22,4.48,1.65,.12,.33,.17,.82,.21,1.4v15.56c0,.21,.17,.37,.38,.37h4.97c.21,0,.38-.17,.38-.37V8.26c.02-.59,.08-1.07,.21-1.4,.51-1.42,1.27-1.65,4.48-1.65,2.7,0,3.27,.74,3.63,1.38,.46,.84,.38,3.09,.38,5.25v11.99c0,.21,.17,.37,.38,.37h4.96c.21,0,.38-.17,.38-.37V10.17c0-3.91-.12-5.92-1.97-7.63h.03Zm-71.29,1.4C64.25,.76,60.1-.2,55.79,.03c-4.37,.23-7.4,1.16-8.18,1.45-.48,.18-.42,.6-.42,.85-.02,.84-.08,2.99-.07,3.88,0,.38,.47,.57,.88,.42,1.6-.57,4.52-1.46,6.89-1.65,2.56-.21,6.01,0,6.97,1.45,.45,.69,.47,1.75,.54,2.82-1.6-.14-3.95-.34-6.29-.22-1.83,.1-5.31,.25-7.37,1.34-1.68,.89-2.66,1.7-3.18,3.2-.41,1.22-.54,2.67-.4,3.86,.31,2.71,1.24,4.06,2.51,5,2.01,1.48,4.53,2.27,9.78,2.15,6.96-.15,8.8-2.4,9.73-4,1.58-2.72,1.3-7.02,1.25-9.66-.02-1.09-.18-4.7-1.86-7.01h0l-.02,.02Zm-4.53,14.29c-.66,1.38-3,1.6-4.39,1.66-2.57,.12-4.46,.02-5.68-.6-.81-.4-1.4-1.32-1.46-2.36-.05-.89-.03-1.34,.37-1.87,.9-1.17,3.26-1.42,5.69-1.51,1.64-.07,4.14,.12,5.97,.34-.02,1.78-.13,3.57-.5,4.33h0ZM153.04,.82h-4.97c-.21,0-.38,.17-.38,.37V23.86c0,.21,.17,.37,.38,.37h4.97c.21,0,.38-.17,.38-.37V1.19c0-.21-.17-.37-.38-.37Z" style="fill:#fff;"/><g><path d="M170.68,8.67V4.51l7.46-4.09h3.06V24.63h-4.62V5.38l-5.91,3.27h0v.02Z" style="fill:#fff;"/><path d="M195.31,10.57c2.58,0,4.36-1.44,4.36-3.47,0-1.85-1.51-3.16-3.67-3.16-1.79,0-3.61,.62-5.42,1.72V1.65c1.92-.89,3.95-1.37,5.91-1.37,4.52,0,7.66,2.61,7.66,6.45,0,2.43-1.44,4.56-3.71,5.38,2.61,.93,4.22,3.16,4.22,5.91,0,3.95-3.39,6.7-8.34,6.7-2.06,0-4.19-.52-6.28-1.51v-4.09c1.96,1.27,3.85,1.92,5.7,1.92,2.58,0,4.39-1.41,4.39-3.43s-1.85-3.57-4.56-3.57h-1.34v-3.47h1.08Z" style="fill:#fff;"/></g><g><path d="M231.08,24.94c-5.8,0-9.85-3.76-9.85-9.02V1.47h4.35V15.62c0,3.28,2.31,5.63,5.49,5.63s5.46-2.34,5.46-5.63V1.47h4.38V15.92c0,5.26-4.09,9.02-9.85,9.02h.02Z" style="fill:#fff;"/><path d="M250.42,.43V24.53h-4.28V.43h4.28Z" style="fill:#fff;"/><path d="M265.37,7.78v3.45h-4.83v7.74c0,1.37,.98,2.37,2.44,2.37,.7,0,1.51-.23,2.37-.67v3.55c-1.21,.46-2.37,.7-3.52,.7-3.28,0-5.6-2.24-5.6-5.39V11.22h-2.89v-3.45h2.89V3.05h4.28V7.78h4.85Z" style="fill:#fff;"/><path d="M273.31,7.78v1.68c1.21-1.34,2.68-2.08,4.12-2.08,.46,0,.93,.03,1.41,.17v3.82c-.46-.13-1.01-.2-1.51-.2-1.41,0-2.92,.77-4.02,2.18v11.19h-4.28V7.78h4.28Z" style="fill:#fff;"/><path d="M285.71,24.94c-3.12,0-5.33-2.04-5.33-5,0-3.48,3.28-5.9,8.07-5.9,.67,0,1.34,.03,2.08,.07v-.77c0-1.58-1.27-2.65-3.15-2.65-1.75,0-3.66,.54-5.56,1.61v-3.55c2.04-.94,4.09-1.37,6.06-1.37,4.09,0,6.74,2.55,6.74,6.16v10.99h-4.09v-1.34c-1.47,1.14-3.12,1.75-4.83,1.75h0Zm1.41-3.33c1.17,0,2.37-.6,3.42-1.65v-3.28c-.6-.07-1.21-.1-1.88-.1-2.41,0-4.05,1.14-4.05,2.75,0,1.34,1.04,2.27,2.51,2.27h0Z" style="fill:#fff;"/></g></g></svg>